<svg xmlns="http://www.w3.org/2000/svg" width="1200" height="760" viewBox="0 0 1200 760" role="img" aria-labelledby="title desc">
  <title id="title">Low-speed control diagram</title>
  <desc id="desc">A practice diagram showing a motorcycle rider doing a low-speed U-turn around cones with key control cues.</desc>
  <rect width="1200" height="760" fill="#f5f8fb"/>
  <rect x="48" y="48" width="1104" height="664" rx="28" fill="#ffffff" stroke="#d9e2ec" stroke-width="2"/>

  <g font-family="Segoe UI, Arial, sans-serif" fill="#17212b">
    <text x="84" y="104" font-size="38" font-weight="700">Low-Speed Control</text>
    <text x="84" y="140" font-size="21" opacity="0.75">Clutch zone + steady throttle + light rear brake.</text>
  </g>

  <rect x="148" y="182" width="900" height="440" rx="28" fill="#e7edf3"/>
  <rect x="236" y="220" width="724" height="364" rx="18" fill="#d7dee5"/>
  <path d="M292 286 C292 286, 430 276, 506 348 C564 402, 544 502, 460 530 C388 554, 318 520, 314 448 C312 404, 350 370, 406 362 C478 352, 554 390, 626 450 C696 508, 804 526, 916 494" fill="none" stroke="#ff9a3d" stroke-width="14" stroke-linecap="round"/>
  <path d="M886 476 L932 496 L892 522" fill="none" stroke="#ff9a3d" stroke-width="14" stroke-linecap="round" stroke-linejoin="round"/>

  <g transform="translate(462 348)">
    <circle cx="122" cy="128" r="58" fill="#20262f"/>
    <circle cx="122" cy="128" r="30" fill="#8d97a2"/>
    <circle cx="-2" cy="128" r="58" fill="#20262f"/>
    <circle cx="-2" cy="128" r="30" fill="#8d97a2"/>
    <path d="M8 64 L74 56 L136 68 L178 64 L224 84 L246 104 L212 114 L176 98 L126 96 L78 96 L48 118 L6 120 L-32 106 L-56 100 L-46 84 Z" fill="#1e2530"/>
    <path d="M20 62 L78 58 L132 70 L124 96 L72 98 L30 88 Z" fill="#2f64b0"/>
    <path d="M124 70 L180 66 L210 82 L184 94 L126 96 Z" fill="#314967"/>
    <path d="M-30 106 L8 120 L18 146 L2 158 L-40 148 L-58 122 Z" fill="#252d38"/>
    <path d="M18 146 L136 146 L164 116 L186 122 L176 150 L148 164 L40 166 Z" fill="#303843"/>
    <rect x="70" y="108" width="72" height="16" rx="8" fill="#11161c"/>
    <path d="M208 124 L294 132" stroke="#1a2028" stroke-width="8" stroke-linecap="round"/>
    <path d="M130 98 L122 138 L134 174" stroke="#13171d" stroke-width="10" stroke-linecap="round"/>
    <path d="M56 98 L18 128" stroke="#13171d" stroke-width="10" stroke-linecap="round"/>
    <path d="M170 150 L214 176" stroke="#13171d" stroke-width="10" stroke-linecap="round"/>

    <g transform="translate(74 -20)">
      <circle cx="22" cy="18" r="16" fill="#20252c"/>
      <path d="M10 26 C6 48, 8 74, 24 94 L40 94 C50 70, 50 48, 42 28 Z" fill="#2f3a46"/>
      <path d="M22 44 L8 78 L18 82 L30 54 L46 82 L56 76 L42 44 Z" fill="#11161d"/>
    </g>
  </g>

  <g transform="translate(276 250)">
    <path d="M0 64 L22 0 L44 64 Z" fill="#ff8f3d"/>
    <rect x="12" y="38" width="20" height="8" fill="#ffffff" opacity="0.85"/>
    <rect x="9" y="20" width="26" height="8" fill="#ffffff" opacity="0.85"/>
  </g>
  <g transform="translate(632 532)">
    <path d="M0 64 L22 0 L44 64 Z" fill="#ff8f3d"/>
    <rect x="12" y="38" width="20" height="8" fill="#ffffff" opacity="0.85"/>
    <rect x="9" y="20" width="26" height="8" fill="#ffffff" opacity="0.85"/>
  </g>
  <g transform="translate(890 472)">
    <path d="M0 64 L22 0 L44 64 Z" fill="#ff8f3d"/>
    <rect x="12" y="38" width="20" height="8" fill="#ffffff" opacity="0.85"/>
    <rect x="9" y="20" width="26" height="8" fill="#ffffff" opacity="0.85"/>
  </g>

  <g stroke="#4f6f92" stroke-width="4" fill="none">
    <path d="M616 296 C704 238, 758 210, 852 194"/>
    <path d="M544 410 C442 374, 364 374, 286 398"/>
    <path d="M622 486 C738 544, 814 590, 936 608"/>
  </g>

  <g font-family="Segoe UI, Arial, sans-serif">
    <g transform="translate(848 152)">
      <rect width="232" height="76" rx="16" fill="#eaf3ff" stroke="#b9d1ef"/>
      <text x="18" y="32" font-size="21" font-weight="700" fill="#18324f">Eyes Up</text>
      <text x="18" y="56" font-size="17" fill="#38506a">Look where you want to go</text>
    </g>

    <g transform="translate(136 386)">
      <rect width="246" height="76" rx="16" fill="#eaf3ff" stroke="#b9d1ef"/>
      <text x="18" y="32" font-size="21" font-weight="700" fill="#18324f">Clutch Zone</text>
      <text x="18" y="56" font-size="17" fill="#38506a">Hold a stable friction point</text>
    </g>

    <g transform="translate(894 588)">
      <rect width="220" height="76" rx="16" fill="#eaf3ff" stroke="#b9d1ef"/>
      <text x="18" y="32" font-size="21" font-weight="700" fill="#18324f">Rear Brake</text>
      <text x="18" y="56" font-size="17" fill="#38506a">Light drag, not hard input</text>
    </g>
  </g>
</svg>
